<?xml version="1.0" standalone="no"?>
<!DOCTYPE svg PUBLIC "-//W3C//DTD SVG 20010904//EN"
 "http://www.w3.org/TR/2001/REC-SVG-20010904/DTD/svg10.dtd">
<svg version="1.0" xmlns="http://www.w3.org/2000/svg"
 width="100.000000pt" height="100.000000pt" viewBox="0 0 100.000000 100.000000"
 preserveAspectRatio="xMidYMid meet">
<metadata>
Created by potrace 1.11, written by Peter Selinger 2001-2013
</metadata>
<g transform="translate(0.000000,100.000000) scale(0.100000,-0.100000)"
fill="#000000" stroke="none">
<path d="M293 786 c-16 -13 -51 -57 -79 -97 -28 -41 -66 -95 -84 -121 l-33
-47 0 -131 c1 -140 10 -172 56 -189 12 -4 174 -7 360 -7 l339 1 24 28 c13 15
24 40 25 55 0 15 1 76 1 135 l1 108 -74 107 c-94 135 -117 162 -146 173 -27
10 -79 -7 -102 -34 -9 -11 -29 -17 -57 -17 -24 0 -44 -4 -44 -10 0 -21 -40 -8
-60 19 -33 48 -89 59 -127 27z"/>
</g>
</svg>
